<?xml version="1.0" encoding="utf-8"?>
<!-- Generator: Adobe Illustrator 24.3.0, SVG Export Plug-In . SVG Version: 6.00 Build 0)  -->
<svg version="1.1" id="Layer_1" xmlns="http://www.w3.org/2000/svg" xmlns:xlink="http://www.w3.org/1999/xlink" x="0px" y="0px"
	 viewBox="0 0 32 32" enable-background="new 0 0 32 32" xml:space="preserve">
<g>
	<g>
		<path d="M11.5,15h-3C8.224,15,8,14.776,8,14.5V6.985C8,5.891,8.891,5,9.985,5C11.109,5,12,5.891,12,6.985V14.5
			C12,14.776,11.776,15,11.5,15z M9,14h2V6.985C11,6.442,10.558,6,10.015,6C9.442,6,9,6.442,9,6.985V14z"/>
	</g>
	<g>
		<path d="M11.5,23h-3C8.224,23,8,22.776,8,22.5v-6C8,16.224,8.224,16,8.5,16h3c0.276,0,0.5,0.224,0.5,0.5v6
			C12,22.776,11.776,23,11.5,23z M9,22h2v-5H9V22z"/>
	</g>
	<g>
		<path d="M10,28c-0.189,0-0.362-0.107-0.447-0.276l-1.5-3c-0.077-0.155-0.069-0.339,0.021-0.486C8.166,24.09,8.327,24,8.5,24h3
			c0.173,0,0.334,0.09,0.426,0.237c0.091,0.147,0.099,0.331,0.021,0.486l-1.5,3C10.362,27.893,10.189,28,10,28z M9.309,25L10,26.382
			L10.691,25H9.309z"/>
	</g>
	<g>
		<rect x="9" y="8" width="2" height="1"/>
	</g>
	<g>
		<path d="M5.069,19c-0.276,0-0.534-0.224-0.534-0.5S4.724,18,5,18c0.485,0,0.871-0.188,1.129-0.515
			c0.257-0.326,0.348-0.745,0.25-1.149l-1.043-4.314c-0.235-0.977-0.015-1.989,0.607-2.779C6.564,8.453,7.497,8,8.502,8H9
			c0.276,0,0.5,0.224,0.5,0.5S9.276,9,9,9H8.502C7.806,9,7.159,9.313,6.729,9.861c-0.431,0.547-0.584,1.249-0.42,1.926l1.043,4.314
			c0.17,0.703,0.011,1.434-0.438,2.003C6.467,18.674,5.794,19,5.069,19z"/>
	</g>
	<g>
		<path d="M26.5,25h-12c-0.276,0-0.5-0.224-0.5-0.5v-16C14,8.224,14.224,8,14.5,8h12C26.776,8,27,8.224,27,8.5v16
			C27,24.776,26.776,25,26.5,25z M15,24h11V9H15V24z"/>
	</g>
	<g>
		<path d="M23,15h-5c-0.276,0-0.5-0.224-0.5-0.5S17.724,14,18,14h5c0.276,0,0.5,0.224,0.5,0.5S23.276,15,23,15z"/>
	</g>
	<g>
		<path d="M23,17h-5c-0.276,0-0.5-0.224-0.5-0.5S17.724,16,18,16h5c0.276,0,0.5,0.224,0.5,0.5S23.276,17,23,17z"/>
	</g>
	<g>
		<path d="M23,19h-5c-0.276,0-0.5-0.224-0.5-0.5S17.724,18,18,18h5c0.276,0,0.5,0.224,0.5,0.5S23.276,19,23,19z"/>
	</g>
	<g>
		<path d="M17.5,10.5c-0.276,0-0.5-0.224-0.5-0.5V7c0-0.276,0.224-0.5,0.5-0.5S18,6.724,18,7v3C18,10.276,17.776,10.5,17.5,10.5z"/>
	</g>
	<g>
		<path d="M23.5,10.5c-0.276,0-0.5-0.224-0.5-0.5V7c0-0.276,0.224-0.5,0.5-0.5S24,6.724,24,7v3C24,10.276,23.776,10.5,23.5,10.5z"/>
	</g>
	<g>
		<path d="M21.5,10.5c-0.276,0-0.5-0.224-0.5-0.5V7c0-0.276,0.224-0.5,0.5-0.5S22,6.724,22,7v3C22,10.276,21.776,10.5,21.5,10.5z"/>
	</g>
	<g>
		<path d="M19.5,10.5c-0.276,0-0.5-0.224-0.5-0.5V7c0-0.276,0.224-0.5,0.5-0.5S20,6.724,20,7v3C20,10.276,19.776,10.5,19.5,10.5z"/>
	</g>
</g>
</svg>
